<mxfile host="app.diagrams.net" modified="2023-10-23T23:18:08.074Z" agent="Mozilla/5.0 (Macintosh; Intel Mac OS X 10_15_7) AppleWebKit/537.36 (KHTML, like Gecko) Chrome/118.0.0.0 Safari/537.36" etag="uKBo8kB7tuELkE5U26sR" version="22.0.6" type="google">
  <diagram name="Page-1" id="2YBvvXClWsGukQMizWep">
    <mxGraphModel grid="1" page="1" gridSize="10" guides="1" tooltips="1" connect="1" arrows="1" fold="1" pageScale="1" pageWidth="850" pageHeight="1100" math="0" shadow="0">
      <root>
        <mxCell id="0" />
        <mxCell id="1" parent="0" />
        <mxCell id="9YLg2sQQNHz7WbE9cUpL-5" value="" style="shape=umlLifeline;perimeter=lifelinePerimeter;whiteSpace=wrap;html=1;container=1;dropTarget=0;collapsible=0;recursiveResize=0;outlineConnect=0;portConstraint=eastwest;newEdgeStyle={&quot;curved&quot;:0,&quot;rounded&quot;:0};participant=umlActor;" vertex="1" parent="1">
          <mxGeometry x="-10" y="100" width="20" height="300" as="geometry" />
        </mxCell>
        <mxCell id="9YLg2sQQNHz7WbE9cUpL-3" value="" style="html=1;points=[[0,0,0,0,5],[0,1,0,0,-5],[1,0,0,0,5],[1,1,0,0,-5]];perimeter=orthogonalPerimeter;outlineConnect=0;targetShapes=umlLifeline;portConstraint=eastwest;newEdgeStyle={&quot;curved&quot;:0,&quot;rounded&quot;:0};" vertex="1" parent="9YLg2sQQNHz7WbE9cUpL-5">
          <mxGeometry x="5" y="70" width="10" height="200" as="geometry" />
        </mxCell>
        <mxCell id="9YLg2sQQNHz7WbE9cUpL-6" value=":VistaDatosAdministradores" style="shape=umlLifeline;perimeter=lifelinePerimeter;whiteSpace=wrap;html=1;container=1;dropTarget=0;collapsible=0;recursiveResize=0;outlineConnect=0;portConstraint=eastwest;newEdgeStyle={&quot;curved&quot;:0,&quot;rounded&quot;:0};" vertex="1" parent="1">
          <mxGeometry x="70" y="100" width="160" height="300" as="geometry" />
        </mxCell>
        <mxCell id="9YLg2sQQNHz7WbE9cUpL-10" value="" style="html=1;points=[[0,0,0,0,5],[0,1,0,0,-5],[1,0,0,0,5],[1,1,0,0,-5]];perimeter=orthogonalPerimeter;outlineConnect=0;targetShapes=umlLifeline;portConstraint=eastwest;newEdgeStyle={&quot;curved&quot;:0,&quot;rounded&quot;:0};" vertex="1" parent="9YLg2sQQNHz7WbE9cUpL-6">
          <mxGeometry x="75" y="70" width="10" height="200" as="geometry" />
        </mxCell>
        <mxCell id="9YLg2sQQNHz7WbE9cUpL-7" value="DatosAdministradores" style="shape=umlLifeline;whiteSpace=wrap;html=1;container=1;dropTarget=0;collapsible=0;recursiveResize=0;outlineConnect=0;portConstraint=eastwest;newEdgeStyle={&quot;curved&quot;:0,&quot;rounded&quot;:0};points=[[0,0,0,0,5],[0,1,0,0,-5],[1,0,0,0,5],[1,1,0,0,-5]];perimeter=rectanglePerimeter;targetShapes=umlLifeline;participant=label;" vertex="1" parent="1">
          <mxGeometry x="250" y="100" width="160" height="300" as="geometry" />
        </mxCell>
        <mxCell id="9YLg2sQQNHz7WbE9cUpL-11" value="" style="html=1;points=[[0,0,0,0,5],[0,1,0,0,-5],[1,0,0,0,5],[1,1,0,0,-5]];perimeter=orthogonalPerimeter;outlineConnect=0;targetShapes=umlLifeline;portConstraint=eastwest;newEdgeStyle={&quot;curved&quot;:0,&quot;rounded&quot;:0};" vertex="1" parent="9YLg2sQQNHz7WbE9cUpL-7">
          <mxGeometry x="75" y="70" width="10" height="200" as="geometry" />
        </mxCell>
        <mxCell id="9YLg2sQQNHz7WbE9cUpL-8" value="BDDAdministradores" style="shape=umlLifeline;perimeter=lifelinePerimeter;whiteSpace=wrap;html=1;container=1;dropTarget=0;collapsible=0;recursiveResize=0;outlineConnect=0;portConstraint=eastwest;newEdgeStyle={&quot;curved&quot;:0,&quot;rounded&quot;:0};" vertex="1" parent="1">
          <mxGeometry x="425" y="100" width="160" height="300" as="geometry" />
        </mxCell>
        <mxCell id="9YLg2sQQNHz7WbE9cUpL-12" value="" style="html=1;points=[[0,0,0,0,5],[0,1,0,0,-5],[1,0,0,0,5],[1,1,0,0,-5]];perimeter=orthogonalPerimeter;outlineConnect=0;targetShapes=umlLifeline;portConstraint=eastwest;newEdgeStyle={&quot;curved&quot;:0,&quot;rounded&quot;:0};" vertex="1" parent="9YLg2sQQNHz7WbE9cUpL-8">
          <mxGeometry x="75" y="100" width="10" height="170" as="geometry" />
        </mxCell>
        <mxCell id="9YLg2sQQNHz7WbE9cUpL-9" value="ConexionBDD" style="shape=umlLifeline;perimeter=lifelinePerimeter;whiteSpace=wrap;html=1;container=1;dropTarget=0;collapsible=0;recursiveResize=0;outlineConnect=0;portConstraint=eastwest;newEdgeStyle={&quot;curved&quot;:0,&quot;rounded&quot;:0};" vertex="1" parent="1">
          <mxGeometry x="600" y="100" width="160" height="300" as="geometry" />
        </mxCell>
        <mxCell id="9YLg2sQQNHz7WbE9cUpL-13" value="" style="html=1;points=[[0,0,0,0,5],[0,1,0,0,-5],[1,0,0,0,5],[1,1,0,0,-5]];perimeter=orthogonalPerimeter;outlineConnect=0;targetShapes=umlLifeline;portConstraint=eastwest;newEdgeStyle={&quot;curved&quot;:0,&quot;rounded&quot;:0};" vertex="1" parent="9YLg2sQQNHz7WbE9cUpL-9">
          <mxGeometry x="75" y="130" width="10" height="140" as="geometry" />
        </mxCell>
        <mxCell id="9YLg2sQQNHz7WbE9cUpL-14" style="edgeStyle=orthogonalEdgeStyle;rounded=0;orthogonalLoop=1;jettySize=auto;html=1;curved=0;exitX=1;exitY=0;exitDx=0;exitDy=5;exitPerimeter=0;entryX=0;entryY=0;entryDx=0;entryDy=5;entryPerimeter=0;" edge="1" parent="1" source="9YLg2sQQNHz7WbE9cUpL-10" target="9YLg2sQQNHz7WbE9cUpL-11">
          <mxGeometry relative="1" as="geometry" />
        </mxCell>
        <mxCell id="9YLg2sQQNHz7WbE9cUpL-15" value="obtenerDatosParticipante(id)" style="edgeLabel;html=1;align=center;verticalAlign=middle;resizable=0;points=[];" connectable="0" vertex="1" parent="9YLg2sQQNHz7WbE9cUpL-14">
          <mxGeometry x="0.1294" y="3" relative="1" as="geometry">
            <mxPoint x="-21" as="offset" />
          </mxGeometry>
        </mxCell>
        <mxCell id="9YLg2sQQNHz7WbE9cUpL-17" style="edgeStyle=orthogonalEdgeStyle;rounded=0;orthogonalLoop=1;jettySize=auto;html=1;curved=0;exitX=1;exitY=0;exitDx=0;exitDy=5;exitPerimeter=0;entryX=0;entryY=0;entryDx=0;entryDy=5;entryPerimeter=0;" edge="1" parent="1" source="9YLg2sQQNHz7WbE9cUpL-11" target="9YLg2sQQNHz7WbE9cUpL-12">
          <mxGeometry relative="1" as="geometry" />
        </mxCell>
        <mxCell id="9YLg2sQQNHz7WbE9cUpL-20" value="obtenerAdministradores()" style="edgeLabel;html=1;align=center;verticalAlign=middle;resizable=0;points=[];" connectable="0" vertex="1" parent="9YLg2sQQNHz7WbE9cUpL-17">
          <mxGeometry x="-0.1273" y="1" relative="1" as="geometry">
            <mxPoint y="13" as="offset" />
          </mxGeometry>
        </mxCell>
        <mxCell id="9YLg2sQQNHz7WbE9cUpL-19" style="edgeStyle=orthogonalEdgeStyle;rounded=0;orthogonalLoop=1;jettySize=auto;html=1;curved=0;exitX=1;exitY=0;exitDx=0;exitDy=5;exitPerimeter=0;entryX=0;entryY=0;entryDx=0;entryDy=5;entryPerimeter=0;" edge="1" parent="1" source="9YLg2sQQNHz7WbE9cUpL-12" target="9YLg2sQQNHz7WbE9cUpL-13">
          <mxGeometry relative="1" as="geometry" />
        </mxCell>
        <mxCell id="9YLg2sQQNHz7WbE9cUpL-21" value="conectarBDD()" style="edgeLabel;html=1;align=center;verticalAlign=middle;resizable=0;points=[];" connectable="0" vertex="1" parent="9YLg2sQQNHz7WbE9cUpL-19">
          <mxGeometry x="-0.0098" y="2" relative="1" as="geometry">
            <mxPoint y="1" as="offset" />
          </mxGeometry>
        </mxCell>
        <mxCell id="9YLg2sQQNHz7WbE9cUpL-22" value="conexionBDD" style="endArrow=open;endSize=12;dashed=1;html=1;rounded=0;" edge="1" parent="1" target="9YLg2sQQNHz7WbE9cUpL-12">
          <mxGeometry width="160" relative="1" as="geometry">
            <mxPoint x="670.5" y="260" as="sourcePoint" />
            <mxPoint x="500" y="260" as="targetPoint" />
          </mxGeometry>
        </mxCell>
        <mxCell id="9YLg2sQQNHz7WbE9cUpL-26" value="List&amp;lt;Administrador&amp;gt;" style="html=1;verticalAlign=bottom;endArrow=open;dashed=1;endSize=8;curved=0;rounded=0;" edge="1" parent="1">
          <mxGeometry x="-0.0678" y="10" relative="1" as="geometry">
            <mxPoint x="670" y="350" as="sourcePoint" />
            <mxPoint x="510" y="350" as="targetPoint" />
            <mxPoint as="offset" />
          </mxGeometry>
        </mxCell>
        <mxCell id="9YLg2sQQNHz7WbE9cUpL-27" style="edgeStyle=orthogonalEdgeStyle;rounded=0;orthogonalLoop=1;jettySize=auto;html=1;curved=0;" edge="1" parent="1">
          <mxGeometry relative="1" as="geometry">
            <mxPoint x="510" y="285" as="sourcePoint" />
            <mxPoint x="675" y="300" as="targetPoint" />
            <Array as="points">
              <mxPoint x="510" y="286" />
              <mxPoint x="593" y="286" />
              <mxPoint x="593" y="320" />
              <mxPoint x="676" y="320" />
            </Array>
          </mxGeometry>
        </mxCell>
        <mxCell id="9YLg2sQQNHz7WbE9cUpL-28" value="obtenerAdministradores()" style="edgeLabel;html=1;align=center;verticalAlign=middle;resizable=0;points=[];" connectable="0" vertex="1" parent="9YLg2sQQNHz7WbE9cUpL-27">
          <mxGeometry x="-0.077" y="-2" relative="1" as="geometry">
            <mxPoint as="offset" />
          </mxGeometry>
        </mxCell>
        <mxCell id="9YLg2sQQNHz7WbE9cUpL-29" value="List&amp;lt;Administrador&amp;gt;" style="html=1;verticalAlign=bottom;endArrow=open;dashed=1;endSize=8;curved=0;rounded=0;" edge="1" parent="1" target="9YLg2sQQNHz7WbE9cUpL-11">
          <mxGeometry x="-0.0678" y="10" relative="1" as="geometry">
            <mxPoint x="499.5" y="350" as="sourcePoint" />
            <mxPoint x="340" y="350" as="targetPoint" />
            <mxPoint as="offset" />
          </mxGeometry>
        </mxCell>
        <mxCell id="9YLg2sQQNHz7WbE9cUpL-31" value="List&amp;lt;Administrador&amp;gt;" style="html=1;verticalAlign=bottom;endArrow=open;dashed=1;endSize=8;curved=0;rounded=0;" edge="1" parent="1" target="9YLg2sQQNHz7WbE9cUpL-10">
          <mxGeometry x="-0.0678" y="10" relative="1" as="geometry">
            <mxPoint x="319.5" y="350" as="sourcePoint" />
            <mxPoint x="160" y="350" as="targetPoint" />
            <mxPoint as="offset" />
          </mxGeometry>
        </mxCell>
        <mxCell id="9YLg2sQQNHz7WbE9cUpL-32" style="edgeStyle=orthogonalEdgeStyle;rounded=0;orthogonalLoop=1;jettySize=auto;html=1;curved=0;exitX=1;exitY=0;exitDx=0;exitDy=5;exitPerimeter=0;entryX=0;entryY=0;entryDx=0;entryDy=5;entryPerimeter=0;" edge="1" parent="1" source="9YLg2sQQNHz7WbE9cUpL-3" target="9YLg2sQQNHz7WbE9cUpL-10">
          <mxGeometry relative="1" as="geometry" />
        </mxCell>
        <mxCell id="9YLg2sQQNHz7WbE9cUpL-33" value="&lt;font style=&quot;font-size: 18px;&quot;&gt;Flujo normal&lt;/font&gt;" style="text;html=1;strokeColor=none;fillColor=none;align=center;verticalAlign=middle;whiteSpace=wrap;rounded=0;" vertex="1" parent="1">
          <mxGeometry x="-57.5" y="40" width="205" height="30" as="geometry" />
        </mxCell>
        <mxCell id="9YLg2sQQNHz7WbE9cUpL-34" value="&lt;span style=&quot;font-size: 18px;&quot;&gt;Flujo Alternativo&lt;/span&gt;" style="text;html=1;strokeColor=none;fillColor=none;align=center;verticalAlign=middle;whiteSpace=wrap;rounded=0;" vertex="1" parent="1">
          <mxGeometry x="-57.5" y="430" width="205" height="30" as="geometry" />
        </mxCell>
        <mxCell id="9YLg2sQQNHz7WbE9cUpL-35" value="" style="shape=umlLifeline;perimeter=lifelinePerimeter;whiteSpace=wrap;html=1;container=1;dropTarget=0;collapsible=0;recursiveResize=0;outlineConnect=0;portConstraint=eastwest;newEdgeStyle={&quot;curved&quot;:0,&quot;rounded&quot;:0};participant=umlActor;" vertex="1" parent="1">
          <mxGeometry x="-10" y="480" width="20" height="300" as="geometry" />
        </mxCell>
        <mxCell id="9YLg2sQQNHz7WbE9cUpL-36" value="" style="html=1;points=[[0,0,0,0,5],[0,1,0,0,-5],[1,0,0,0,5],[1,1,0,0,-5]];perimeter=orthogonalPerimeter;outlineConnect=0;targetShapes=umlLifeline;portConstraint=eastwest;newEdgeStyle={&quot;curved&quot;:0,&quot;rounded&quot;:0};" vertex="1" parent="9YLg2sQQNHz7WbE9cUpL-35">
          <mxGeometry x="5" y="70" width="10" height="200" as="geometry" />
        </mxCell>
        <mxCell id="9YLg2sQQNHz7WbE9cUpL-37" value=":VistaDatosAdministradores" style="shape=umlLifeline;perimeter=lifelinePerimeter;whiteSpace=wrap;html=1;container=1;dropTarget=0;collapsible=0;recursiveResize=0;outlineConnect=0;portConstraint=eastwest;newEdgeStyle={&quot;curved&quot;:0,&quot;rounded&quot;:0};" vertex="1" parent="1">
          <mxGeometry x="70" y="480" width="160" height="300" as="geometry" />
        </mxCell>
        <mxCell id="9YLg2sQQNHz7WbE9cUpL-38" value="" style="html=1;points=[[0,0,0,0,5],[0,1,0,0,-5],[1,0,0,0,5],[1,1,0,0,-5]];perimeter=orthogonalPerimeter;outlineConnect=0;targetShapes=umlLifeline;portConstraint=eastwest;newEdgeStyle={&quot;curved&quot;:0,&quot;rounded&quot;:0};" vertex="1" parent="9YLg2sQQNHz7WbE9cUpL-37">
          <mxGeometry x="75" y="70" width="10" height="210" as="geometry" />
        </mxCell>
        <mxCell id="9YLg2sQQNHz7WbE9cUpL-39" value="DatosAdministradores" style="shape=umlLifeline;whiteSpace=wrap;html=1;container=1;dropTarget=0;collapsible=0;recursiveResize=0;outlineConnect=0;portConstraint=eastwest;newEdgeStyle={&quot;curved&quot;:0,&quot;rounded&quot;:0};points=[[0,0,0,0,5],[0,1,0,0,-5],[1,0,0,0,5],[1,1,0,0,-5]];perimeter=rectanglePerimeter;targetShapes=umlLifeline;participant=label;" vertex="1" parent="1">
          <mxGeometry x="250" y="480" width="160" height="300" as="geometry" />
        </mxCell>
        <mxCell id="9YLg2sQQNHz7WbE9cUpL-40" value="" style="html=1;points=[[0,0,0,0,5],[0,1,0,0,-5],[1,0,0,0,5],[1,1,0,0,-5]];perimeter=orthogonalPerimeter;outlineConnect=0;targetShapes=umlLifeline;portConstraint=eastwest;newEdgeStyle={&quot;curved&quot;:0,&quot;rounded&quot;:0};" vertex="1" parent="9YLg2sQQNHz7WbE9cUpL-39">
          <mxGeometry x="75" y="70" width="10" height="210" as="geometry" />
        </mxCell>
        <mxCell id="9YLg2sQQNHz7WbE9cUpL-41" value="BDDAdministradores" style="shape=umlLifeline;perimeter=lifelinePerimeter;whiteSpace=wrap;html=1;container=1;dropTarget=0;collapsible=0;recursiveResize=0;outlineConnect=0;portConstraint=eastwest;newEdgeStyle={&quot;curved&quot;:0,&quot;rounded&quot;:0};" vertex="1" parent="1">
          <mxGeometry x="425" y="480" width="160" height="300" as="geometry" />
        </mxCell>
        <mxCell id="9YLg2sQQNHz7WbE9cUpL-42" value="" style="html=1;points=[[0,0,0,0,5],[0,1,0,0,-5],[1,0,0,0,5],[1,1,0,0,-5]];perimeter=orthogonalPerimeter;outlineConnect=0;targetShapes=umlLifeline;portConstraint=eastwest;newEdgeStyle={&quot;curved&quot;:0,&quot;rounded&quot;:0};" vertex="1" parent="9YLg2sQQNHz7WbE9cUpL-41">
          <mxGeometry x="75" y="100" width="10" height="170" as="geometry" />
        </mxCell>
        <mxCell id="9YLg2sQQNHz7WbE9cUpL-43" value="ConexionBDD" style="shape=umlLifeline;perimeter=lifelinePerimeter;whiteSpace=wrap;html=1;container=1;dropTarget=0;collapsible=0;recursiveResize=0;outlineConnect=0;portConstraint=eastwest;newEdgeStyle={&quot;curved&quot;:0,&quot;rounded&quot;:0};" vertex="1" parent="1">
          <mxGeometry x="600" y="480" width="160" height="300" as="geometry" />
        </mxCell>
        <mxCell id="9YLg2sQQNHz7WbE9cUpL-44" value="" style="html=1;points=[[0,0,0,0,5],[0,1,0,0,-5],[1,0,0,0,5],[1,1,0,0,-5]];perimeter=orthogonalPerimeter;outlineConnect=0;targetShapes=umlLifeline;portConstraint=eastwest;newEdgeStyle={&quot;curved&quot;:0,&quot;rounded&quot;:0};" vertex="1" parent="9YLg2sQQNHz7WbE9cUpL-43">
          <mxGeometry x="75" y="130" width="10" height="140" as="geometry" />
        </mxCell>
        <mxCell id="9YLg2sQQNHz7WbE9cUpL-45" style="edgeStyle=orthogonalEdgeStyle;rounded=0;orthogonalLoop=1;jettySize=auto;html=1;curved=0;exitX=1;exitY=0;exitDx=0;exitDy=5;exitPerimeter=0;entryX=0;entryY=0;entryDx=0;entryDy=5;entryPerimeter=0;" edge="1" parent="1" source="9YLg2sQQNHz7WbE9cUpL-38" target="9YLg2sQQNHz7WbE9cUpL-40">
          <mxGeometry relative="1" as="geometry" />
        </mxCell>
        <mxCell id="9YLg2sQQNHz7WbE9cUpL-46" value="mostrarAdministradores" style="edgeLabel;html=1;align=center;verticalAlign=middle;resizable=0;points=[];" connectable="0" vertex="1" parent="9YLg2sQQNHz7WbE9cUpL-45">
          <mxGeometry x="0.1294" y="3" relative="1" as="geometry">
            <mxPoint x="-21" as="offset" />
          </mxGeometry>
        </mxCell>
        <mxCell id="9YLg2sQQNHz7WbE9cUpL-47" style="edgeStyle=orthogonalEdgeStyle;rounded=0;orthogonalLoop=1;jettySize=auto;html=1;curved=0;exitX=1;exitY=0;exitDx=0;exitDy=5;exitPerimeter=0;entryX=0;entryY=0;entryDx=0;entryDy=5;entryPerimeter=0;" edge="1" parent="1" source="9YLg2sQQNHz7WbE9cUpL-40" target="9YLg2sQQNHz7WbE9cUpL-42">
          <mxGeometry relative="1" as="geometry" />
        </mxCell>
        <mxCell id="9YLg2sQQNHz7WbE9cUpL-48" value="obtenerAdministradores()" style="edgeLabel;html=1;align=center;verticalAlign=middle;resizable=0;points=[];" connectable="0" vertex="1" parent="9YLg2sQQNHz7WbE9cUpL-47">
          <mxGeometry x="-0.1273" y="1" relative="1" as="geometry">
            <mxPoint y="13" as="offset" />
          </mxGeometry>
        </mxCell>
        <mxCell id="9YLg2sQQNHz7WbE9cUpL-49" style="edgeStyle=orthogonalEdgeStyle;rounded=0;orthogonalLoop=1;jettySize=auto;html=1;curved=0;exitX=1;exitY=0;exitDx=0;exitDy=5;exitPerimeter=0;entryX=0;entryY=0;entryDx=0;entryDy=5;entryPerimeter=0;" edge="1" parent="1" source="9YLg2sQQNHz7WbE9cUpL-42" target="9YLg2sQQNHz7WbE9cUpL-44">
          <mxGeometry relative="1" as="geometry" />
        </mxCell>
        <mxCell id="9YLg2sQQNHz7WbE9cUpL-50" value="conectarBDD()" style="edgeLabel;html=1;align=center;verticalAlign=middle;resizable=0;points=[];" connectable="0" vertex="1" parent="9YLg2sQQNHz7WbE9cUpL-49">
          <mxGeometry x="-0.0098" y="2" relative="1" as="geometry">
            <mxPoint y="1" as="offset" />
          </mxGeometry>
        </mxCell>
        <mxCell id="9YLg2sQQNHz7WbE9cUpL-51" value="conexionBDD" style="endArrow=open;endSize=12;dashed=1;html=1;rounded=0;" edge="1" parent="1" target="9YLg2sQQNHz7WbE9cUpL-42">
          <mxGeometry width="160" relative="1" as="geometry">
            <mxPoint x="670.5" y="640" as="sourcePoint" />
            <mxPoint x="500" y="640" as="targetPoint" />
          </mxGeometry>
        </mxCell>
        <mxCell id="9YLg2sQQNHz7WbE9cUpL-52" value="List&amp;lt;Administrador&amp;gt;" style="html=1;verticalAlign=bottom;endArrow=open;dashed=1;endSize=8;curved=0;rounded=0;" edge="1" parent="1">
          <mxGeometry x="-0.0678" y="10" relative="1" as="geometry">
            <mxPoint x="670" y="730" as="sourcePoint" />
            <mxPoint x="510" y="730" as="targetPoint" />
            <mxPoint as="offset" />
          </mxGeometry>
        </mxCell>
        <mxCell id="9YLg2sQQNHz7WbE9cUpL-53" style="edgeStyle=orthogonalEdgeStyle;rounded=0;orthogonalLoop=1;jettySize=auto;html=1;curved=0;" edge="1" parent="1">
          <mxGeometry relative="1" as="geometry">
            <mxPoint x="510" y="665" as="sourcePoint" />
            <mxPoint x="675" y="680" as="targetPoint" />
            <Array as="points">
              <mxPoint x="510" y="666" />
              <mxPoint x="593" y="666" />
              <mxPoint x="593" y="700" />
              <mxPoint x="676" y="700" />
            </Array>
          </mxGeometry>
        </mxCell>
        <mxCell id="9YLg2sQQNHz7WbE9cUpL-54" value="obtenerAdministradores()" style="edgeLabel;html=1;align=center;verticalAlign=middle;resizable=0;points=[];" connectable="0" vertex="1" parent="9YLg2sQQNHz7WbE9cUpL-53">
          <mxGeometry x="-0.077" y="-2" relative="1" as="geometry">
            <mxPoint as="offset" />
          </mxGeometry>
        </mxCell>
        <mxCell id="9YLg2sQQNHz7WbE9cUpL-55" value="List&amp;lt;Administrador&amp;gt;" style="html=1;verticalAlign=bottom;endArrow=open;dashed=1;endSize=8;curved=0;rounded=0;" edge="1" parent="1" target="9YLg2sQQNHz7WbE9cUpL-40">
          <mxGeometry x="-0.0678" y="10" relative="1" as="geometry">
            <mxPoint x="499.5" y="730" as="sourcePoint" />
            <mxPoint x="340" y="730" as="targetPoint" />
            <mxPoint as="offset" />
          </mxGeometry>
        </mxCell>
        <mxCell id="9YLg2sQQNHz7WbE9cUpL-56" value="List&amp;lt;Administrador&amp;gt;" style="html=1;verticalAlign=bottom;endArrow=open;dashed=1;endSize=8;curved=0;rounded=0;" edge="1" parent="1" target="9YLg2sQQNHz7WbE9cUpL-38">
          <mxGeometry x="-0.0678" y="10" relative="1" as="geometry">
            <mxPoint x="319.5" y="730" as="sourcePoint" />
            <mxPoint x="160" y="730" as="targetPoint" />
            <mxPoint as="offset" />
          </mxGeometry>
        </mxCell>
        <mxCell id="9YLg2sQQNHz7WbE9cUpL-57" style="edgeStyle=orthogonalEdgeStyle;rounded=0;orthogonalLoop=1;jettySize=auto;html=1;curved=0;exitX=1;exitY=0;exitDx=0;exitDy=5;exitPerimeter=0;entryX=0;entryY=0;entryDx=0;entryDy=5;entryPerimeter=0;" edge="1" parent="1" source="9YLg2sQQNHz7WbE9cUpL-36" target="9YLg2sQQNHz7WbE9cUpL-38">
          <mxGeometry relative="1" as="geometry" />
        </mxCell>
        <mxCell id="9YLg2sQQNHz7WbE9cUpL-58" style="edgeStyle=orthogonalEdgeStyle;rounded=0;orthogonalLoop=1;jettySize=auto;html=1;curved=0;exitX=1;exitY=1;exitDx=0;exitDy=-5;exitPerimeter=0;entryX=0;entryY=1;entryDx=0;entryDy=-5;entryPerimeter=0;" edge="1" parent="1" source="9YLg2sQQNHz7WbE9cUpL-38" target="9YLg2sQQNHz7WbE9cUpL-40">
          <mxGeometry relative="1" as="geometry" />
        </mxCell>
        <mxCell id="9YLg2sQQNHz7WbE9cUpL-61" value="Boton para cambio de pagina" style="edgeLabel;html=1;align=center;verticalAlign=middle;resizable=0;points=[];" connectable="0" vertex="1" parent="9YLg2sQQNHz7WbE9cUpL-58">
          <mxGeometry x="0.0118" y="-1" relative="1" as="geometry">
            <mxPoint x="-1" y="-6" as="offset" />
          </mxGeometry>
        </mxCell>
      </root>
    </mxGraphModel>
  </diagram>
</mxfile>
